<svg width="20" height="19" viewBox="0 0 20 19" fill="none" xmlns="http://www.w3.org/2000/svg">
<g clip-path="url(#clip0_8001_5069)">
<g clip-path="url(#clip1_8001_5069)">
<g clip-path="url(#clip2_8001_5069)">
<path d="M5.69239 5.41666C4.672 4.38239 4.672 2.70257 5.69239 1.6683C5.9331 1.4227 6.22038 1.22758 6.53743 1.09438C6.85448 0.961186 7.19491 0.892578 7.5388 0.892578C7.88269 0.892578 8.22313 0.961186 8.54018 1.09438C8.85722 1.22758 9.14451 1.4227 9.38522 1.6683L9.99953 2.29303L10.6138 1.6683C10.8546 1.4227 11.1418 1.22758 11.4589 1.09438C11.7759 0.961186 12.1164 0.892578 12.4603 0.892578C12.8042 0.892578 13.1446 0.961186 13.4616 1.09438C13.7787 1.22758 14.066 1.4227 14.3067 1.6683C15.3271 2.70257 15.3271 4.38239 14.3067 5.41666L10.7804 8.99843C10.5653 9.21708 10.2841 9.32467 9.99953 9.32467C9.71493 9.32467 9.43381 9.21708 9.21862 8.99843L5.69239 5.41666ZM19.7244 12.3372C20.1791 12.955 20.0472 13.8227 19.4294 14.2774L15.0355 17.5155C14.2234 18.1125 13.2446 18.4353 12.2347 18.4353H6.66766H1.11453C0.968644 18.4354 0.824161 18.4068 0.689352 18.351C0.554543 18.2952 0.432054 18.2134 0.328896 18.1103C0.225737 18.0071 0.143935 17.8846 0.0881691 17.7498C0.0324035 17.615 0.00376978 17.4705 0.00390674 17.3246V15.1034C0.00376978 14.9575 0.0324035 14.813 0.0881691 14.6782C0.143935 14.5434 0.225737 14.4209 0.328896 14.3178C0.432054 14.2146 0.554543 14.1328 0.689352 14.077C0.824161 14.0213 0.968644 13.9926 1.11453 13.9928H2.39175L3.9501 12.7433C4.73795 12.1116 5.71668 11.7715 6.72666 11.7715H9.44422H9.99953H12.2208C12.5153 11.7715 12.7978 11.8885 13.0061 12.0968C13.2144 12.3051 13.3314 12.5876 13.3314 12.8821C13.3314 13.1767 13.2144 13.4592 13.0061 13.6675C12.7978 13.8758 12.5153 13.9928 12.2208 13.9928H9.99953H9.44422C9.1388 13.9928 8.88891 14.2427 8.88891 14.5481C8.88891 14.8535 9.1388 15.1034 9.44422 15.1034H13.6299L17.7843 12.0422C18.4021 11.5876 19.2698 11.7195 19.7244 12.3372Z" fill="#767A81"/>
<path d="M5.70476 5.40448L5.70474 5.40447C4.69102 4.37696 4.69102 2.708 5.70474 1.68049L5.70478 1.68045C5.94387 1.43649 6.22923 1.24269 6.54415 1.11038C6.85907 0.978079 7.19722 0.909932 7.5388 0.909932C7.88039 0.909932 8.21854 0.978079 8.53345 1.11038C8.84837 1.24269 9.13373 1.43649 9.37282 1.68045L9.37284 1.68047L9.98716 2.30519L9.99953 2.31778L10.0119 2.30519L10.6262 1.68047L10.6262 1.68045C10.8653 1.43649 11.1507 1.24269 11.4656 1.11038C11.7805 0.978079 12.1187 0.909932 12.4603 0.909932C12.8018 0.909932 13.14 0.978079 13.4549 1.11038C13.7698 1.24269 14.0552 1.43649 14.2943 1.68045L14.2943 1.68049C15.308 2.708 15.308 4.37696 14.2943 5.40447L14.2943 5.40448L10.7681 8.98625L10.7804 8.99843L10.7681 8.98625C10.5563 9.20144 10.2797 9.30732 9.99953 9.30732C9.71936 9.30732 9.44276 9.20144 9.23099 8.98625L9.21862 8.99843L9.23099 8.98625L5.70476 5.40448ZM19.4191 14.2634L19.4294 14.2774L19.4191 14.2634L15.0252 17.5015C14.2161 18.0963 13.2409 18.4179 12.2347 18.4179H6.66766H1.11453C0.970909 18.418 0.828686 18.3899 0.695985 18.335C0.563285 18.2801 0.442712 18.1996 0.341167 18.098C0.239622 17.9965 0.159098 17.8759 0.104205 17.7432C0.0493113 17.6105 0.0211254 17.4683 0.0212603 17.3247L0.0212603 15.1034L0.0212602 15.1034C0.0211254 14.9598 0.0493113 14.8175 0.104205 14.6848C0.159098 14.5521 0.239622 14.4316 0.341167 14.33C0.442712 14.2285 0.563285 14.148 0.695985 14.0931C0.828686 14.0382 0.970909 14.01 1.11452 14.0101H1.11453H2.39175V14.015L2.40261 14.0063L3.96095 12.7569C4.74569 12.1277 5.72059 11.7889 6.72666 11.7889H9.44422H9.99953H12.2208C12.5107 11.7889 12.7888 11.9041 12.9938 12.1091C13.1989 12.3141 13.3141 12.5922 13.3141 12.8821C13.3141 13.1721 13.1989 13.4502 12.9938 13.6552C12.7888 13.8602 12.5107 13.9754 12.2208 13.9754H9.99953H9.44422C9.12921 13.9754 8.87155 14.2331 8.87155 14.5481C8.87155 14.8631 9.12921 15.1207 9.44422 15.1207H13.6299V15.1249L13.6402 15.1174L17.7946 12.0562C18.4047 11.6072 19.2615 11.7375 19.7105 12.3475C20.1594 12.9576 20.0292 13.8144 19.4191 14.2634Z" stroke="#000007" stroke-opacity="0.403922" stroke-width="0.034707"/>
</g>
</g>
</g>
<defs>
<clipPath id="clip0_8001_5069">
<rect width="20" height="17.77" fill="white" transform="translate(0 0.666016)"/>
</clipPath>
<clipPath id="clip1_8001_5069">
<rect width="20" height="17.77" fill="white" transform="translate(0 0.666016)"/>
</clipPath>
<clipPath id="clip2_8001_5069">
<rect width="19.9912" height="17.77" fill="white" transform="translate(0.00390625 0.666016)"/>
</clipPath>
</defs>
</svg>
