<svg width="20" height="31" viewBox="0 0 20 31" fill="none" xmlns="http://www.w3.org/2000/svg">
<g clip-path="url(#clip0_8001_5030)">
<g clip-path="url(#clip1_8001_5030)">
<path d="M16.8779 14.5723L10.9929 28.3089C10.9096 28.5123 10.7679 28.6873 10.5846 28.8089C10.4013 28.9306 10.1879 28.9989 9.96794 28.9989C9.74794 28.9989 9.53294 28.9339 9.34961 28.8106C9.16628 28.6873 9.02461 28.5139 8.94128 28.3106L3.09961 14.5723" stroke="#000007" stroke-opacity="0.403922" stroke-width="1.66667" stroke-linecap="round" stroke-linejoin="round"/>
<path d="M5.64289 15.3932C6.80122 15.3932 7.91211 14.9331 8.73118 14.114C9.55024 13.2949 10.0104 12.184 10.0104 11.0257C10.0104 9.86737 9.55024 8.75648 8.73118 7.93741C7.91211 7.11835 6.80122 6.6582 5.64289 6.6582C4.48456 6.6582 3.37367 7.11835 2.5546 7.93741C1.73554 8.75648 1.27539 9.86737 1.27539 11.0257C1.27539 12.184 1.73554 13.2949 2.5546 14.114C3.37367 14.9331 4.48456 15.3932 5.64289 15.3932Z" stroke="#767A81" stroke-width="1.66667" stroke-linejoin="round"/>
<path d="M5.64258 6.6787C5.64346 5.52616 6.1017 4.42108 6.91666 3.60612C7.73163 2.79115 8.83671 2.33291 9.98925 2.33203C11.1418 2.33291 12.2469 2.79115 13.0618 3.60612C13.8768 4.42108 14.335 5.52616 14.3359 6.6787" stroke="#767A81" stroke-width="1.66667" stroke-linecap="round" stroke-linejoin="round"/>
<path d="M14.3558 15.3932C15.5141 15.3932 16.625 14.9331 17.4441 14.114C18.2631 13.2949 18.7233 12.184 18.7233 11.0257C18.7233 9.86737 18.2631 8.75648 17.4441 7.93741C16.625 7.11835 15.5141 6.6582 14.3558 6.6582C13.1974 6.6582 12.0866 7.11835 11.2675 7.93741C10.4484 8.75648 9.98828 9.86737 9.98828 11.0257C9.98828 12.184 10.4484 13.2949 11.2675 14.114C12.0866 14.9331 13.1974 15.3932 14.3558 15.3932Z" stroke="#767A81" stroke-width="1.66667" stroke-linejoin="round"/>
</g>
</g>
<defs>
<clipPath id="clip0_8001_5030">
<rect width="20" height="30" fill="white" transform="translate(0 0.666016)"/>
</clipPath>
<clipPath id="clip1_8001_5030">
<rect width="20" height="30" fill="white" transform="translate(0 0.666016)"/>
</clipPath>
</defs>
</svg>
