<svg width="46" height="45" viewBox="0 0 46 45" fill="none" xmlns="http://www.w3.org/2000/svg">
<rect x="0.5" width="45" height="45" rx="15" fill="#FABE06"/>
<g clip-path="url(#clip0_4002_14062)">
<path d="M32.7402 22.07C32.6902 21.56 32.2602 21.18 31.7502 21.18H24.2002C23.6502 21.18 23.2002 21.63 23.2002 22.18V23.89C23.2002 24.44 23.6502 24.89 24.2002 24.89H28.7102C28.6002 25.81 28.0002 27.2 26.6702 28.13C25.8202 28.72 24.6902 29.13 23.2002 29.13C23.1302 29.13 23.0702 29.13 23.0002 29.12C20.4502 29.04 18.2902 27.33 17.5102 24.98C17.3002 24.35 17.1802 23.69 17.1802 23C17.1802 22.31 17.3002 21.64 17.5002 21.02C17.5602 20.84 17.6302 20.66 17.7102 20.48C18.6302 18.41 20.6402 16.95 23.0002 16.88C23.0602 16.87 23.1302 16.87 23.2002 16.87C24.6302 16.87 25.7002 17.34 26.4502 17.86C26.8402 18.13 27.3602 18.07 27.7002 17.74L29.0902 16.38C29.5302 15.95 29.4902 15.22 28.9902 14.86C27.4002 13.69 25.4602 13 23.2002 13C23.1302 13 23.0702 13 23.0002 13.01C19.1702 13.08 15.8802 15.3 14.2702 18.51C13.5902 19.87 13.2002 21.39 13.2002 23C13.2002 24.61 13.5902 26.13 14.2702 27.49H14.2802C15.8902 30.7 19.1802 32.92 23.0002 32.99C23.0702 33 23.1302 33 23.2002 33C25.9002 33 28.1702 32.11 29.8202 30.58C31.7102 28.83 32.8002 26.27 32.8002 23.22C32.8002 22.79 32.7802 22.42 32.7402 22.07Z" fill="white"/>
</g>
<defs>
<clipPath id="clip0_4002_14062">
<rect width="24" height="24" fill="white" transform="translate(11.5 11)"/>
</clipPath>
</defs>
</svg>
