<svg width="20" height="19" viewBox="0 0 20 19" fill="none" xmlns="http://www.w3.org/2000/svg">
<g clip-path="url(#clip0_8001_5055)">
<g clip-path="url(#clip1_8001_5055)">
<g clip-path="url(#clip2_8001_5055)">
<path fill-rule="evenodd" clip-rule="evenodd" d="M19.7943 7.22312C19.7943 4.19223 18.4438 1.93099 16.3413 1.10802C14.3966 0.345021 12.061 0.915883 9.99968 2.84504C7.93836 0.915883 5.60383 0.345021 3.65801 1.10802C1.5556 1.93099 0.205078 4.19223 0.205078 7.22201C0.205078 9.15228 1.23463 11.0514 2.51629 12.6863C3.81239 14.3378 5.44168 15.8171 6.80108 16.9211L6.92325 17.0211C8.0161 17.9096 8.80687 18.5515 9.99968 18.5515C11.1925 18.5515 11.9821 17.9096 13.0772 17.0211L13.1994 16.9211C14.5588 15.8182 16.1881 14.3389 17.4842 12.6874C18.7658 11.0526 19.7954 9.15339 19.7954 7.22423L19.7943 7.22312ZM10.4995 4.27885C12.4242 2.22087 14.4189 1.82215 15.8438 2.37969C17.2687 2.93722 18.4282 4.57539 18.4282 7.22201C18.4282 8.69026 17.6263 10.2873 16.4069 11.8411C15.2007 13.3804 13.6592 14.7865 12.3375 15.8582C11.0681 16.8878 10.6583 17.1821 9.99968 17.1821C9.34108 17.1821 8.93126 16.8878 7.66181 15.8571C6.34017 14.7854 4.79862 13.3793 3.59248 11.8411C2.37191 10.2862 1.57115 8.68804 1.57115 7.2209C1.57115 4.57428 2.7262 2.93833 4.15557 2.37858C5.58495 1.81882 7.5763 2.21865 9.50101 4.27774C9.56543 4.3466 9.64206 4.40102 9.72869 4.43767C9.81532 4.47433 9.9075 4.49432 10.0008 4.49432C10.0941 4.49432 10.1874 4.47544 10.2729 4.43767C10.3584 4.39991 10.4362 4.34549 10.5006 4.27774L10.4995 4.27885Z" fill="black"/>
<path d="M10.0957 3.89758C12.1232 1.73082 14.347 1.19771 16.0461 1.86255C17.7431 2.52652 18.9835 4.4177 18.9835 7.22201C18.9835 8.87788 18.0886 10.5978 16.8437 12.184C15.6016 13.7691 14.0249 15.2049 12.6873 16.2895L10.0957 3.89758ZM10.0957 3.89758C10.0829 3.91046 10.0668 3.92166 10.0486 3.92968C10.0365 3.935 10.02 3.939 10.0008 3.939C9.98719 3.939 9.96834 3.9361 9.94506 3.92625C9.93296 3.92113 9.92012 3.91286 9.90669 3.89854C9.90664 3.89849 9.90659 3.89843 9.90654 3.89838L10.0957 3.89758ZM19.239 7.22312V7.32835C19.2026 9.03663 18.2784 10.7742 17.0472 12.3448C15.787 13.9504 14.193 15.3999 12.8495 16.4899L12.8477 16.4913L12.7273 16.5898C12.7271 16.5901 12.7268 16.5903 12.7265 16.5905C11.602 17.5029 10.9635 17.9962 9.99968 17.9962C9.03592 17.9962 8.39602 17.5027 7.27428 16.5908C7.27404 16.5906 7.2738 16.5904 7.27356 16.5902L7.15273 16.4913L7.15115 16.49C5.80749 15.3989 4.21343 13.9493 2.95331 12.3437C1.69707 10.7413 0.760391 8.96485 0.760391 7.22201C0.760391 4.34684 2.03227 2.34075 3.86043 1.62513L3.86073 1.62501C5.55287 0.961481 7.66756 1.42301 9.62023 3.25049L9.99968 3.60561L10.3791 3.25049C12.3318 1.423 14.4476 0.961525 16.1385 1.62497L16.1389 1.62513C17.9671 2.34073 19.239 4.34678 19.239 7.22312ZM3.15549 12.1838C4.39754 13.7678 5.97419 15.2035 7.31179 16.2882L3.15549 12.1838Z" stroke="#000007" stroke-opacity="0.403922" stroke-width="1.11063"/>
</g>
</g>
</g>
<defs>
<clipPath id="clip0_8001_5055">
<rect width="20" height="17.77" fill="white" transform="translate(0 0.78125)"/>
</clipPath>
<clipPath id="clip1_8001_5055">
<rect width="20" height="17.77" fill="white" transform="translate(0 0.78125)"/>
</clipPath>
<clipPath id="clip2_8001_5055">
<rect width="19.9912" height="17.77" fill="white" transform="translate(0.00390625 0.78125)"/>
</clipPath>
</defs>
</svg>
