<svg width="20" height="21" viewBox="0 0 20 21" fill="none" xmlns="http://www.w3.org/2000/svg">
<g clip-path="url(#clip0_8001_5048)">
<g clip-path="url(#clip1_8001_5048)">
<g clip-path="url(#clip2_8001_5048)">
<path d="M9.9993 1.33227L10.433 0.826016C10.3118 0.722266 10.158 0.666016 9.9993 0.666016C9.84055 0.666016 9.6868 0.722266 9.56555 0.826016L9.9993 1.33227ZM0.665547 9.33227L0.231797 8.82602L-0.00195312 9.02602V9.33227H0.665547ZM7.3318 19.9985V20.666C7.50805 20.666 7.67805 20.596 7.80305 20.471C7.92805 20.346 7.99805 20.176 7.99805 19.9998H7.3318V19.9985ZM12.6655 19.9985H11.9993C11.9993 20.1748 12.0693 20.3448 12.1943 20.4698C12.3193 20.5948 12.4893 20.6648 12.6655 20.6648V19.9985ZM19.3318 9.33227H19.9993V9.02602L19.7655 8.82602L19.3318 9.33227ZM1.9993 20.666H7.3318L7.33305 19.3323H1.9993V20.666ZM19.7655 8.82602L10.433 0.826016L9.5668 1.83977L18.9005 9.83977L19.7668 8.82602H19.7655ZM9.56555 0.826016L0.231797 8.82602L1.09805 9.83977L10.4318 1.83977L9.56555 0.826016ZM7.99805 19.9998L7.9993 15.9998H6.66555V19.9998H7.99805ZM11.9993 15.9998V19.9998H13.333V15.9998H11.9993ZM12.6655 20.666H17.9993V19.3323H12.6655V20.666ZM19.9993 18.666V9.33227H18.6655V18.666H19.9993ZM-0.000703125 9.33227V18.666H1.33305V9.33227H-0.000703125ZM9.9993 13.9985C10.5297 13.9985 11.0384 14.2092 11.4135 14.5843C11.7886 14.9594 11.9993 15.4681 11.9993 15.9985H13.333C13.333 15.1148 12.9818 14.266 12.3568 13.641C11.7318 13.016 10.883 12.666 9.9993 12.666V13.9985ZM9.9993 12.666C9.11555 12.666 8.2668 13.0173 7.6418 13.6423C7.0168 14.2673 6.66555 15.1148 6.66555 15.9998H7.9993C7.9993 15.4693 8.21001 14.9606 8.58508 14.5856C8.96016 14.2105 9.46886 13.9985 9.9993 13.9985V12.666ZM17.9993 20.666C18.5297 20.666 19.0384 20.4553 19.4135 20.0802C19.7886 19.7052 19.9993 19.1964 19.9993 18.666H18.6655C18.6655 18.8423 18.5955 19.0123 18.4705 19.1373C18.3455 19.2623 18.1755 19.3323 17.9993 19.3323V20.666ZM1.9993 19.3323C1.82305 19.3323 1.65305 19.2623 1.52805 19.1373C1.40305 19.0123 1.33305 18.8423 1.33305 18.666H-0.000703125C-0.000703125 19.1964 0.210011 19.7052 0.585083 20.0802C0.960156 20.4553 1.46886 20.666 1.9993 20.666V19.3323Z" fill="#767A81"/>
<path d="M8.97479 2.15551L9.0389 2.21046L1.45896 8.70727H1.33305H1.33074L8.97479 2.15551ZM0.624297 18.041V10.2474L0.708047 10.3454V18.041H0.624297ZM19.2905 18.041V10.3454L19.3743 10.2474V18.041H19.2905ZM11.0237 2.15557L18.6667 8.70727H18.6655H18.5396L10.9597 2.21046L11.0237 2.15557ZM19.1293 19.291H19.224C19.1592 19.4181 19.0744 19.5355 18.9716 19.6383C18.8688 19.7411 18.7514 19.8259 18.6243 19.8908V19.796C18.7291 19.7382 18.8262 19.6655 18.9125 19.5792C18.9987 19.4929 19.0714 19.3958 19.1293 19.291ZM17.3743 19.9573V20.041H13.958V19.9998V19.9573H17.3743ZM7.29055 18.7073V16.6248H7.3741L7.37345 18.7073H7.33305H7.29055ZM2.6243 19.9573H6.04055V19.9998V20.041H2.6243V19.9573ZM1.3743 19.796V19.8908C1.24719 19.8259 1.12981 19.7411 1.02703 19.6383L0.589459 20.0759L1.02702 19.6383C0.924241 19.5355 0.83941 19.4181 0.774551 19.291H0.869274C0.927152 19.3958 0.999847 19.4929 1.08611 19.5792C1.17236 19.6655 1.26954 19.7382 1.3743 19.796ZM7.44978 15.3748H7.36352C7.4784 14.8898 7.72584 14.4421 8.08374 14.0842C8.44146 13.7265 8.88956 13.4791 9.3743 13.3641V13.4493C8.91164 13.5631 8.4849 13.8018 8.14314 14.1436C7.80103 14.4857 7.5631 14.9125 7.44978 15.3748ZM11.9149 14.083C12.2726 14.4407 12.52 14.8888 12.6349 15.3735H12.5488C12.4355 14.9113 12.1976 14.4845 11.8555 14.1424C11.5133 13.8003 11.0865 13.5623 10.6243 13.449V13.3639C11.1093 13.4785 11.5573 13.7254 11.9149 14.083ZM12.708 16.6248V18.7073H12.6655H12.6243V16.6248H12.708Z" stroke="#767A81" stroke-opacity="0.403922" stroke-width="1.25"/>
</g>
</g>
</g>
<defs>
<clipPath id="clip0_8001_5048">
<rect width="20" height="20" fill="white" transform="translate(0 0.666016)"/>
</clipPath>
<clipPath id="clip1_8001_5048">
<rect width="20" height="20" fill="white" transform="translate(0 0.666016)"/>
</clipPath>
<clipPath id="clip2_8001_5048">
<rect width="20" height="20" fill="white" transform="translate(0 0.666016)"/>
</clipPath>
</defs>
</svg>
