<svg width="88" height="87" viewBox="0 0 88 87" fill="none" xmlns="http://www.w3.org/2000/svg">
<path d="M20.666 39.334H67.3327" stroke="white" stroke-width="1.5" stroke-miterlimit="10" stroke-linecap="round" stroke-linejoin="round"/>
<path d="M42.9453 63.8328H31.022C22.7387 63.8328 20.6387 61.7795 20.6387 53.5895V34.4095C20.6387 26.9895 22.3654 24.6095 28.8754 24.2361C29.5287 24.2128 30.252 24.1895 31.022 24.1895H56.9453C65.2287 24.1895 67.3287 26.2428 67.3287 34.4328V44.7228" stroke="white" stroke-width="1.5" stroke-linecap="round" stroke-linejoin="round"/>
<path d="M30 53.334H39.3333" stroke="white" stroke-width="1.5" stroke-miterlimit="10" stroke-linecap="round" stroke-linejoin="round"/>
<path d="M67.3327 57.9993C67.3327 59.7493 66.8426 61.406 65.9793 62.806C64.3693 65.5127 61.406 67.3327 57.9993 67.3327C54.5927 67.3327 51.6294 65.5127 50.0194 62.806C49.1561 61.406 48.666 59.7493 48.666 57.9993C48.666 52.8427 52.8427 48.666 57.9993 48.666C63.156 48.666 67.3327 52.8427 67.3327 57.9993Z" stroke="white" stroke-width="1.5" stroke-miterlimit="10" stroke-linecap="round" stroke-linejoin="round"/>
<path d="M54.3633 57.9995L56.6733 60.3096L61.6433 55.7129" stroke="white" stroke-width="1.5" stroke-linecap="round" stroke-linejoin="round"/>
</svg>
