<svg width="66" height="87" viewBox="0 0 66 87" fill="none" xmlns="http://www.w3.org/2000/svg">
<path d="M46.8272 66.4458C44.7738 67.0524 42.3472 67.3324 39.5005 67.3324H25.5005C22.6538 67.3324 20.2272 67.0524 18.1738 66.4458C18.6872 60.3791 24.9172 55.5957 32.5005 55.5957C40.0838 55.5957 46.3138 60.3791 46.8272 66.4458Z" stroke="white" stroke-width="1.5" stroke-linecap="round" stroke-linejoin="round"/>
<path d="M39.4993 20.666H25.4993C13.8327 20.666 9.16602 25.3327 9.16602 36.9993V50.9993C9.16602 59.8193 11.826 64.6493 18.1727 66.446C18.686 60.3793 24.916 55.5959 32.4993 55.5959C40.0827 55.5959 46.3127 60.3793 46.826 66.446C53.1727 64.6493 55.8327 59.8193 55.8327 50.9993V36.9993C55.8327 25.3327 51.166 20.666 39.4993 20.666ZM32.4993 49.0626C27.8793 49.0626 24.146 45.3061 24.146 40.6861C24.146 36.0661 27.8793 32.3327 32.4993 32.3327C37.1193 32.3327 40.8527 36.0661 40.8527 40.6861C40.8527 45.3061 37.1193 49.0626 32.4993 49.0626Z" stroke="white" stroke-width="1.5" stroke-linecap="round" stroke-linejoin="round"/>
<path d="M40.8532 40.6874C40.8532 45.3074 37.1198 49.0639 32.4998 49.0639C27.8798 49.0639 24.1465 45.3074 24.1465 40.6874C24.1465 36.0674 27.8798 32.334 32.4998 32.334C37.1198 32.334 40.8532 36.0674 40.8532 40.6874Z" stroke="white" stroke-width="1.5" stroke-linecap="round" stroke-linejoin="round"/>
</svg>
