<svg width="16" height="16" viewBox="0 0 16 16" fill="none" xmlns="http://www.w3.org/2000/svg">
<path d="M12.666 7.33268H8.66602V3.33268C8.66602 3.15587 8.59578 2.9863 8.47075 2.86128C8.34573 2.73625 8.17616 2.66602 7.99935 2.66602C7.82254 2.66602 7.65297 2.73625 7.52794 2.86128C7.40292 2.9863 7.33268 3.15587 7.33268 3.33268V7.33268H3.33268C3.15587 7.33268 2.9863 7.40292 2.86128 7.52794C2.73625 7.65297 2.66602 7.82254 2.66602 7.99935C2.66602 8.17616 2.73625 8.34573 2.86128 8.47075C2.9863 8.59578 3.15587 8.66602 3.33268 8.66602H7.33268V12.666C7.33268 12.8428 7.40292 13.0124 7.52794 13.1374C7.65297 13.2624 7.82254 13.3327 7.99935 13.3327C8.17616 13.3327 8.34573 13.2624 8.47075 13.1374C8.59578 13.0124 8.66602 12.8428 8.66602 12.666V8.66602H12.666C12.8428 8.66602 13.0124 8.59578 13.1374 8.47075C13.2624 8.34573 13.3327 8.17616 13.3327 7.99935C13.3327 7.82254 13.2624 7.65297 13.1374 7.52794C13.0124 7.40292 12.8428 7.33268 12.666 7.33268Z" fill="black"/>
</svg>
