<svg width="88" height="87" viewBox="0 0 88 87" fill="none" xmlns="http://www.w3.org/2000/svg">
<path d="M44.0007 48.666H46.3341C48.9007 48.666 51.0007 46.566 51.0007 43.9994V20.666H30.0007C26.5007 20.666 23.4441 22.6027 21.8574 25.4493" stroke="white" stroke-width="1.5" stroke-linecap="round" stroke-linejoin="round"/>
<path d="M20.666 55.666C20.666 59.5393 23.7927 62.666 27.666 62.666H29.9993C29.9993 60.0993 32.0993 57.9993 34.666 57.9993C37.2327 57.9993 39.3327 60.0993 39.3327 62.666H48.666C48.666 60.0993 50.766 57.9993 53.3327 57.9993C55.8993 57.9993 57.9993 60.0993 57.9993 62.666H60.3327C64.206 62.666 67.3327 59.5393 67.3327 55.666V48.666H60.3327C59.0493 48.666 57.9993 47.616 57.9993 46.3327V39.3327C57.9993 38.0493 59.0493 36.9993 60.3327 36.9993H63.3426L59.3527 30.0227C58.5127 28.576 56.9727 27.666 55.2927 27.666H50.9993V43.9993C50.9993 46.566 48.8993 48.666 46.3327 48.666H43.9993" stroke="white" stroke-width="1.5" stroke-linecap="round" stroke-linejoin="round"/>
<path d="M34.6667 67.3333C37.244 67.3333 39.3333 65.244 39.3333 62.6667C39.3333 60.0893 37.244 58 34.6667 58C32.0893 58 30 60.0893 30 62.6667C30 65.244 32.0893 67.3333 34.6667 67.3333Z" stroke="white" stroke-width="1.5" stroke-linecap="round" stroke-linejoin="round"/>
<path d="M53.3327 67.3333C55.91 67.3333 57.9993 65.244 57.9993 62.6667C57.9993 60.0893 55.91 58 53.3327 58C50.7554 58 48.666 60.0893 48.666 62.6667C48.666 65.244 50.7554 67.3333 53.3327 67.3333Z" stroke="white" stroke-width="1.5" stroke-linecap="round" stroke-linejoin="round"/>
<path d="M67.3333 44V48.6667H60.3333C59.05 48.6667 58 47.6167 58 46.3333V39.3333C58 38.05 59.05 37 60.3333 37H63.3433L67.3333 44Z" stroke="white" stroke-width="1.5" stroke-linecap="round" stroke-linejoin="round"/>
<path d="M20.666 34.666H34.666" stroke="white" stroke-width="1.5" stroke-linecap="round" stroke-linejoin="round"/>
<path d="M20.666 41.666H29.9993" stroke="white" stroke-width="1.5" stroke-linecap="round" stroke-linejoin="round"/>
<path d="M20.666 48.666H25.3327" stroke="white" stroke-width="1.5" stroke-linecap="round" stroke-linejoin="round"/>
</svg>
