<svg width="88" height="87" viewBox="0 0 88 87" fill="none" xmlns="http://www.w3.org/2000/svg">
<path d="M36.2344 49.437C36.2344 52.4469 38.5444 54.8736 41.4144 54.8736H47.271C49.7677 54.8736 51.7977 52.7503 51.7977 50.137C51.7977 47.2903 50.561 46.287 48.7177 45.6336L39.3144 42.367C37.471 41.7136 36.2344 40.7103 36.2344 37.8636C36.2344 35.2503 38.2644 33.127 40.761 33.127H46.6177C49.4877 33.127 51.7977 35.5536 51.7977 38.5636" stroke="white" stroke-width="1.5" stroke-linecap="round" stroke-linejoin="round"/>
<path d="M44 30V58" stroke="white" stroke-width="1.5" stroke-linecap="round" stroke-linejoin="round"/>
<path d="M50.9993 67.3327H36.9993C25.3327 67.3327 20.666 62.666 20.666 50.9993V36.9993C20.666 25.3327 25.3327 20.666 36.9993 20.666H50.9993C62.666 20.666 67.3327 25.3327 67.3327 36.9993V50.9993C67.3327 62.666 62.666 67.3327 50.9993 67.3327Z" stroke="white" stroke-width="1.5" stroke-linecap="round" stroke-linejoin="round"/>
</svg>
