<svg width="42" height="42" viewBox="0 0 42 42" fill="none" xmlns="http://www.w3.org/2000/svg">
<g clip-path="url(#clip0_8001_2432)">
<path d="M12.2259 7.14311C12.2136 7.0936 12.4983 6.90793 12.8572 6.72225L13.5133 6.41279L14.1569 7.60111C14.5159 8.25716 15.6052 10.3243 16.5831 12.1934C17.561 14.0626 18.7122 16.2907 19.1578 17.1448C19.8881 18.5559 19.95 18.7415 19.9128 19.3233C19.8757 19.7442 19.7643 20.0784 19.5415 20.3755C19.3682 20.6107 19.0216 20.8954 18.774 21.0068C18.3532 21.2172 17.7343 21.2296 4.57617 21.2296V19.7442H11.2852C17.4743 19.7442 18.019 19.7194 18.2294 19.5214C18.3532 19.41 18.4522 19.2614 18.4398 19.1872C18.4398 19.1129 18.3037 18.8158 18.1428 18.5064C17.9818 18.1969 17.103 16.5011 16.1746 14.731C15.2586 12.9609 13.996 10.5471 13.3771 9.3712C12.7582 8.20764 12.2383 7.19263 12.2259 7.14311Z" fill="white"/>
<path d="M25.4335 12.4286C26.2258 10.9061 27.2779 8.9132 27.7607 7.99721L28.6271 6.36328L29.2584 6.72225C29.605 6.9203 29.8773 7.13073 29.865 7.19263C29.8526 7.25452 29.048 8.82656 28.0577 10.6957L27.9287 10.9439C26.9673 12.7938 25.7398 15.1555 25.1241 16.3278C24.4928 17.5532 23.9234 18.6178 23.8615 18.6797C23.812 18.7539 23.7625 18.9644 23.7625 19.15C23.7625 19.3605 23.8491 19.5338 24.01 19.608C24.171 19.6947 26.7333 19.7318 37.6261 19.7318V21.2172H30.6943C24.9879 21.2172 23.7006 21.1924 23.4283 21.0439C23.2302 20.9573 22.9579 20.7468 22.8094 20.5859C22.6608 20.425 22.4504 20.0784 22.3514 19.8308C22.24 19.5709 22.1533 19.2243 22.1533 19.051C22.1533 18.8901 22.5618 17.9493 23.0693 16.9838C23.5644 16.006 24.629 13.9635 25.4335 12.4286Z" fill="white"/>
<path d="M19.8633 22.9006C20.0738 22.7521 20.4327 22.6036 20.6679 22.5664C20.9155 22.5169 21.2497 22.5045 21.4106 22.5417C21.5839 22.5788 21.8686 22.6778 22.0295 22.7645C22.2028 22.8511 22.4628 23.0492 22.5989 23.2101C22.7475 23.371 23.255 24.1385 23.7377 24.9183C24.2205 25.7105 25.0374 27.0721 25.5697 27.951C26.0896 28.8422 27.2408 30.7361 28.1073 32.1596C28.9861 33.5955 29.7041 34.8085 29.7041 34.8581C29.7041 34.9076 29.4317 35.118 28.4662 35.6874L28.231 35.2913C28.0949 35.0685 26.5105 32.469 24.728 29.4983C21.98 24.9554 21.423 24.1137 21.163 24.0766C20.9898 24.0642 20.7793 24.1385 20.6555 24.2623C20.5441 24.386 18.9845 26.9112 17.202 29.8696C15.4195 32.8404 13.897 35.3532 13.8227 35.4646C13.6866 35.6503 13.6247 35.6379 12.3745 34.8828L12.7211 34.3258C12.9191 34.0287 14.5159 31.3798 16.286 28.4709C18.4522 24.8935 19.6158 23.0739 19.8633 22.9006Z" fill="white"/>
</g>
<defs>
<clipPath id="clip0_8001_2432">
<rect width="41.6938" height="41.6938" fill="white"/>
</clipPath>
</defs>
</svg>
