<svg width="64" height="65" viewBox="0 0 64 65" fill="none" xmlns="http://www.w3.org/2000/svg">
<path fill-rule="evenodd" clip-rule="evenodd" d="M17.9512 32.5001V46.5487L25.5329 46.4826L33.1147 46.4161V41.0906C33.1147 38.1614 33.1974 35.7646 33.2986 35.7646C33.3999 35.7644 34.2378 36.7792 35.1606 38.0198C36.0837 39.2605 36.9075 40.2756 36.9912 40.2756C37.0752 40.2756 37.5103 39.9653 37.9582 39.5863L38.7728 38.8971L36.8865 36.3907L35.0002 33.8843L37.9755 33.7282C40.3891 33.6014 41.2052 33.4553 42.2962 32.9535C43.8785 32.2259 45.3159 30.8226 46.0926 29.2476C46.8648 27.6821 46.8716 24.6108 46.1066 22.9443C45.4239 21.4573 43.7923 19.8239 42.3002 19.1342C41.1691 18.6113 40.7957 18.5935 29.5431 18.5234L17.9512 18.4512V32.5001ZM20.3207 21.0415C20.252 21.2207 20.2264 23.5634 20.264 26.2472L20.3322 31.1273L22.1165 31.2003L23.9008 31.2732L23.7797 30.6399C23.2855 28.0543 25.9272 25.7071 28.4315 26.5069C28.9396 26.669 29.6684 27.0944 30.0516 27.4518L30.7481 28.1019L30.6782 24.4767L30.6083 20.8513L25.5272 20.7833C21.5395 20.7302 20.4189 20.7856 20.3207 21.0415ZM33.3778 20.9563C33.2668 21.136 33.1375 26.8387 33.2219 27.8325C33.2317 27.95 33.6322 27.7019 34.1119 27.2808C36.5434 25.1459 40.1036 26.776 40.1036 30.0243C40.1036 31.1517 40.1473 31.2424 40.6192 31.0973C42.4388 30.5373 43.8324 29.0583 44.2737 27.2184C44.9254 24.502 43.0619 21.6014 40.2821 21.0052C38.7131 20.6688 33.5781 20.6325 33.3778 20.9563ZM26.3863 29.2047C25.3507 30.3489 26.257 31.2527 28.4398 31.2527H29.9915L29.0559 29.9995C28.0262 28.6202 27.151 28.3598 26.3863 29.2047ZM34.8844 29.9368L33.9553 31.1273L35.4995 31.2025C37.2429 31.2875 37.7514 31.0201 37.7514 30.019C37.7514 29.1674 37.3314 28.7463 36.4817 28.7463C35.9819 28.7463 35.5792 29.0466 34.8844 29.9368ZM20.359 34.1555C20.1608 34.6723 20.1608 43.3724 20.359 43.8892C20.4909 44.2329 21.1929 44.2857 25.6224 44.2857H30.7336V39.8495C30.7336 37.4078 30.6381 35.5202 30.5216 35.6513C30.4048 35.7824 29.5962 36.8481 28.7248 38.0198C27.8533 39.1916 27.1054 40.1946 27.0628 40.249C26.943 40.4016 25.2234 39.1753 25.2214 38.9359C25.2199 38.7682 27.0445 36.2839 28.7929 34.0723C28.9889 33.8242 28.1526 33.759 24.7757 33.759C21.1182 33.759 20.4896 33.8154 20.359 34.1555Z" fill="black"/>
</svg>
