<svg width="64" height="64" viewBox="0 0 64 64" fill="none" xmlns="http://www.w3.org/2000/svg">
<path fill-rule="evenodd" clip-rule="evenodd" d="M17.9512 32.0001V46.0487L25.5329 45.9826L33.1147 45.9161V40.5906C33.1147 37.6614 33.1974 35.2646 33.2986 35.2646C33.3999 35.2644 34.2378 36.2792 35.1606 37.5198C36.0837 38.7605 36.9075 39.7756 36.9912 39.7756C37.0752 39.7756 37.5103 39.4653 37.9582 39.0863L38.7728 38.3971L36.8865 35.8907L35.0002 33.3843L37.9755 33.2282C40.3891 33.1014 41.2052 32.9553 42.2962 32.4535C43.8785 31.7259 45.3159 30.3226 46.0926 28.7476C46.8648 27.1821 46.8716 24.1108 46.1066 22.4443C45.4239 20.9573 43.7923 19.3239 42.3002 18.6342C41.1691 18.1113 40.7957 18.0935 29.5431 18.0234L17.9512 17.9512V32.0001ZM20.3207 20.5415C20.252 20.7207 20.2264 23.0634 20.264 25.7472L20.3322 30.6273L22.1165 30.7003L23.9008 30.7732L23.7797 30.1399C23.2855 27.5543 25.9272 25.2071 28.4315 26.0069C28.9396 26.169 29.6684 26.5944 30.0516 26.9518L30.7481 27.6019L30.6782 23.9767L30.6083 20.3513L25.5272 20.2833C21.5395 20.2302 20.4189 20.2856 20.3207 20.5415ZM33.3778 20.4563C33.2668 20.636 33.1375 26.3387 33.2219 27.3325C33.2317 27.45 33.6322 27.2019 34.1119 26.7808C36.5434 24.6459 40.1036 26.276 40.1036 29.5243C40.1036 30.6517 40.1473 30.7424 40.6192 30.5973C42.4388 30.0373 43.8324 28.5583 44.2737 26.7184C44.9254 24.002 43.0619 21.1014 40.2821 20.5052C38.7131 20.1688 33.5781 20.1325 33.3778 20.4563ZM26.3863 28.7047C25.3507 29.8489 26.257 30.7527 28.4398 30.7527H29.9915L29.0559 29.4995C28.0262 28.1202 27.151 27.8598 26.3863 28.7047ZM34.8844 29.4368L33.9553 30.6273L35.4995 30.7025C37.2429 30.7875 37.7514 30.5201 37.7514 29.519C37.7514 28.6674 37.3314 28.2463 36.4817 28.2463C35.9819 28.2463 35.5792 28.5466 34.8844 29.4368ZM20.359 33.6555C20.1608 34.1723 20.1608 42.8724 20.359 43.3892C20.4909 43.7329 21.1929 43.7857 25.6224 43.7857H30.7336V39.3495C30.7336 36.9078 30.6381 35.0202 30.5216 35.1513C30.4048 35.2824 29.5962 36.3481 28.7248 37.5198C27.8533 38.6916 27.1054 39.6946 27.0628 39.749C26.943 39.9016 25.2234 38.6753 25.2214 38.4359C25.2199 38.2682 27.0445 35.7839 28.7929 33.5723C28.9889 33.3242 28.1526 33.259 24.7757 33.259C21.1182 33.259 20.4896 33.3154 20.359 33.6555Z" fill="white"/>
</svg>
