<svg width="20" height="21" viewBox="0 0 20 21" fill="none" xmlns="http://www.w3.org/2000/svg">
<g clip-path="url(#clip0_8001_5062)">
<g clip-path="url(#clip1_8001_5062)">
<g clip-path="url(#clip2_8001_5062)">
<path d="M18.9669 1.69314C19.1223 1.84688 19.2457 2.02993 19.3299 2.23168C19.4141 2.43343 19.4575 2.64989 19.4575 2.86851C19.4575 3.08713 19.4141 3.30359 19.3299 3.50534C19.2457 3.70709 19.1223 3.89014 18.9669 4.04388L14.6538 8.35692L17.0046 18.5466L15.441 20.1209L11.1393 11.8828L6.81493 16.2066L7.21419 18.9453L6.02774 20.1204L4.07626 16.5945L0.539603 14.6322L1.71471 13.435L4.48633 13.8451L8.77722 9.55418L0.539062 5.21899L2.11343 3.65542L12.3031 6.00617L16.6161 1.69314C17.2369 1.0502 18.3455 1.0502 18.9669 1.69314Z" fill="#767A81"/>
<path d="M18.7726 1.88086L18.7726 1.88091L18.7769 1.88519C18.9069 2.01381 19.0101 2.16695 19.0806 2.33574C19.1511 2.50453 19.1873 2.68561 19.1873 2.86851C19.1873 3.05141 19.1511 3.23249 19.0806 3.40128C19.0101 3.57007 18.9069 3.72321 18.7769 3.85183L18.7758 3.85287L14.4628 8.1659L14.3569 8.27177L14.3906 8.41765L16.7078 18.462L15.5095 19.6686L11.3788 11.7577L11.2085 11.4316L10.9483 11.6917L6.62392 16.0156L6.52806 16.1114L6.54762 16.2456L6.92721 18.8493L6.09125 19.6773L4.31261 16.4637L4.27509 16.3959L4.20732 16.3583L0.980976 14.5682L1.81119 13.7223L4.44679 14.1123L4.58124 14.1322L4.67735 14.0361L8.96824 9.74519L9.22754 9.48589L8.90302 9.31512L0.990556 5.15132L2.19799 3.95217L12.2423 6.2694L12.3882 6.30305L12.4941 6.19719L16.8071 1.88415L16.8072 1.88418L16.8104 1.88078C17.325 1.34789 18.2574 1.34777 18.7726 1.88086Z" stroke="#000007" stroke-opacity="0.403922" stroke-width="0.540278"/>
</g>
</g>
</g>
<defs>
<clipPath id="clip0_8001_5062">
<rect width="20" height="19.45" fill="white" transform="translate(0 0.941406)"/>
</clipPath>
<clipPath id="clip1_8001_5062">
<rect width="20" height="19.45" fill="white" transform="translate(0 0.941406)"/>
</clipPath>
<clipPath id="clip2_8001_5062">
<rect width="19.9903" height="19.45" fill="white" transform="translate(0.00390625 0.941406)"/>
</clipPath>
</defs>
</svg>
