<svg width="18" height="29" viewBox="0 0 18 29" fill="none" xmlns="http://www.w3.org/2000/svg">
<path d="M6.71333 1H3.85667C3.09833 1 2.37167 1.30167 1.83667 1.83667C1.30167 2.37167 1 3.1 1 3.85667V24.8083C1 25.5667 1.30167 26.2933 1.83667 26.8283C2.37167 27.3633 3.09833 27.6667 3.85667 27.6667H13.38C14.1383 27.6667 14.865 27.365 15.4 26.83C15.935 26.295 16.2367 25.5667 16.2367 24.81V3.85667C16.2367 3.09833 15.935 2.37167 15.4 1.83667C14.865 1.30167 14.1383 1 13.38 1H10.5233M6.71333 1V2.905H10.5233V1M6.71333 1H10.5233M6.71333 24.81H10.5233" stroke="#000007" stroke-opacity="0.403922" stroke-width="1.66667" stroke-linecap="round" stroke-linejoin="round"/>
</svg>
