<svg width="20" height="21" viewBox="0 0 20 21" fill="none" xmlns="http://www.w3.org/2000/svg">
<path d="M0.0604457 9.6677C0.264196 7.8202 0.966696 6.0652 2.09045 4.5952C3.20901 3.12873 4.7109 1.99971 6.43045 1.3327C8.14384 0.66948 10.0081 0.496772 11.8142 0.833949C13.6192 1.17145 15.2992 2.0052 16.6679 3.24395C18.0367 4.4827 19.0417 6.0802 19.5729 7.85895C20.1042 9.6377 20.1417 11.5314 19.6817 13.3302C19.2217 15.1289 18.2804 16.7664 16.9617 18.0602C15.6429 19.3539 13.9992 20.2552 12.2079 20.6665C12.4367 20.3027 12.5354 19.8702 12.4892 19.4402C12.4429 19.0102 12.2529 18.6114 11.9504 18.3064L11.9379 18.2939C12.1621 17.9575 12.3586 17.6034 12.5254 17.2352C12.8192 16.5864 13.0529 15.9127 13.2254 15.2202H9.6792C9.82161 14.8106 9.91762 14.3862 9.96545 13.9552H13.4904C13.6646 12.9097 13.7512 11.8514 13.7492 10.7914C13.7517 9.73153 13.6656 8.67326 13.4917 7.6277H6.5067L6.4442 8.02645C6.05295 7.8702 5.6467 7.7577 5.23045 7.69395L5.24045 7.6277H1.8242L1.5767 8.3802C0.998962 8.7161 0.485555 9.15205 0.0604457 9.6677ZM12.5267 4.3477C11.7579 2.67895 10.8204 1.9327 9.9992 1.9327C9.17795 1.9327 8.24045 2.67895 7.4717 4.3477C7.1792 4.99645 6.94545 5.6702 6.7742 6.3627H13.2267C13.0542 5.67145 12.8204 4.99645 12.5267 4.3477ZM5.48545 6.36145C5.70545 5.42145 5.9942 4.56145 6.3392 3.81145C6.5717 3.30645 6.84045 2.8327 7.1417 2.4152C5.15045 3.11395 3.4742 4.51395 2.4192 6.36145H5.48545ZM17.5792 15.2202H14.5117C14.3129 16.0977 14.0267 16.9514 13.6579 17.7702C13.4358 18.2603 13.1671 18.7278 12.8554 19.1664C14.8467 18.4677 16.5242 17.0677 17.5792 15.2202ZM14.7579 13.9552H18.1742C18.5556 12.944 18.7504 11.8721 18.7492 10.7914C18.7504 9.71078 18.5556 8.63885 18.1742 7.6277H14.7579C14.9154 8.6252 14.9992 9.6902 14.9992 10.7914C14.9992 11.8927 14.9154 12.9577 14.7579 13.9552ZM17.5792 6.3627C16.5313 4.52177 14.8545 3.12061 12.8567 2.41645C13.1579 2.83395 13.4267 3.3077 13.6592 3.8127C14.0042 4.5627 14.2929 5.4227 14.5129 6.3627H17.5792ZM7.8792 15.9752C8.5417 15.0789 8.8442 13.9614 8.72545 12.8477C8.6067 11.7339 8.07545 10.7077 7.24045 9.9752C6.40545 9.2427 5.32545 8.85645 4.2192 8.89645C3.11117 8.93812 2.06088 9.40134 1.28295 10.1914C0.499196 10.9814 0.0429457 12.0439 0.00294571 13.1627C-0.0376419 14.2797 0.342413 15.3712 1.06795 16.2214C1.7917 17.0677 2.80545 17.6052 3.90545 17.7252C5.007 17.8449 6.11262 17.5386 6.99545 16.8689L10.1829 20.0964C10.3004 20.2114 10.4592 20.2752 10.6229 20.2739C10.7867 20.2727 10.9442 20.2064 11.0592 20.0889C11.1755 19.971 11.2414 19.8124 11.2428 19.6467C11.2442 19.4811 11.181 19.3214 11.0667 19.2014L7.8792 15.9752ZM7.4992 13.3227C7.4992 14.1614 7.17045 14.9664 6.5842 15.5602C5.99795 16.1539 5.20295 16.4864 4.3742 16.4864C3.54545 16.4864 2.75045 16.1527 2.1642 15.5602C1.57795 14.9677 1.2492 14.1627 1.2492 13.3227C1.2492 12.4827 1.57795 11.6789 2.1642 11.0852C2.75045 10.4914 3.54545 10.1589 4.3742 10.1589C5.20295 10.1589 5.99795 10.4927 6.5842 11.0852C7.17045 11.6777 7.4992 12.4827 7.4992 13.3227Z" fill="black"/>
</svg>
