<svg width="358" height="65" viewBox="0 0 358 65" fill="none" xmlns="http://www.w3.org/2000/svg">
<g clip-path="url(#clip0_8001_6145)">
<path fill-rule="evenodd" clip-rule="evenodd" d="M17.9512 32.5001V46.5487L25.5329 46.4826L33.1147 46.4161V41.0906C33.1147 38.1614 33.1974 35.7646 33.2986 35.7646C33.3999 35.7644 34.2378 36.7792 35.1606 38.0198C36.0837 39.2605 36.9075 40.2756 36.9912 40.2756C37.0752 40.2756 37.5103 39.9653 37.9582 39.5863L38.7728 38.8971L36.8865 36.3907L35.0002 33.8843L37.9755 33.7282C40.3891 33.6014 41.2052 33.4553 42.2962 32.9535C43.8785 32.2259 45.3159 30.8226 46.0926 29.2476C46.8648 27.6821 46.8716 24.6108 46.1066 22.9443C45.4239 21.4573 43.7923 19.8239 42.3002 19.1342C41.1691 18.6113 40.7957 18.5935 29.5431 18.5234L17.9512 18.4512V32.5001ZM20.3207 21.0415C20.252 21.2207 20.2264 23.5634 20.264 26.2472L20.3322 31.1273L22.1165 31.2003L23.9008 31.2732L23.7797 30.6399C23.2855 28.0543 25.9272 25.7071 28.4315 26.5069C28.9396 26.669 29.6684 27.0944 30.0516 27.4518L30.7481 28.1019L30.6782 24.4767L30.6083 20.8513L25.5272 20.7833C21.5395 20.7302 20.4189 20.7856 20.3207 21.0415ZM33.3778 20.9563C33.2668 21.136 33.1375 26.8387 33.2219 27.8325C33.2317 27.95 33.6322 27.7019 34.1119 27.2808C36.5434 25.1459 40.1036 26.776 40.1036 30.0243C40.1036 31.1517 40.1473 31.2424 40.6192 31.0973C42.4388 30.5373 43.8324 29.0583 44.2737 27.2184C44.9254 24.502 43.0619 21.6014 40.2821 21.0052C38.7131 20.6688 33.5781 20.6325 33.3778 20.9563ZM26.3863 29.2047C25.3507 30.3489 26.257 31.2527 28.4398 31.2527H29.9915L29.0559 29.9995C28.0262 28.6202 27.151 28.3598 26.3863 29.2047ZM34.8844 29.9368L33.9553 31.1273L35.4995 31.2025C37.2429 31.2875 37.7514 31.0201 37.7514 30.019C37.7514 29.1674 37.3314 28.7463 36.4817 28.7463C35.9819 28.7463 35.5792 29.0466 34.8844 29.9368ZM20.359 34.1555C20.1608 34.6723 20.1608 43.3724 20.359 43.8892C20.4909 44.2329 21.1929 44.2857 25.6224 44.2857H30.7336V39.8495C30.7336 37.4078 30.6381 35.5202 30.5216 35.6513C30.4048 35.7824 29.5962 36.8481 28.7248 38.0198C27.8533 39.1916 27.1054 40.1946 27.0628 40.249C26.943 40.4016 25.2234 39.1753 25.2214 38.9359C25.2199 38.7682 27.0445 36.2839 28.7929 34.0723C28.9889 33.8242 28.1526 33.759 24.7757 33.759C21.1182 33.759 20.4896 33.8154 20.359 34.1555Z" fill="black"/>
<path d="M75.008 40.5V17.844H81.408C86.016 17.844 89.056 19.828 89.056 23.892C89.056 27.956 85.952 29.972 81.344 29.972H77.312V40.5H75.008ZM77.312 19.828V28.02H81.216C84.8 28.02 86.752 26.58 86.752 23.892C86.752 21.108 84.704 19.828 81.216 19.828H77.312ZM91.9113 28.82C91.9113 28.02 91.8793 26.548 91.7833 25.524H93.8633C93.9273 26.324 93.9913 27.444 93.9913 28.084H94.0553C94.8873 26.356 96.7433 25.14 98.8553 25.14C99.3993 25.14 99.8473 25.172 100.295 25.3L100.007 27.348C99.7513 27.252 99.0473 27.156 98.4713 27.156C96.1673 27.156 94.0873 28.82 94.0873 32.82V40.5H91.9113V28.82ZM104.096 31.86H114.304C114.176 29.044 112.448 26.964 109.344 26.964C106.432 26.964 104.288 29.3 104.096 31.86ZM116.512 32.564C116.512 32.852 116.512 33.204 116.48 33.588H104.064C104.128 36.596 106.464 39.028 109.536 39.028C111.776 39.028 113.504 37.78 114.336 36.436L115.968 37.716C114.208 39.956 112 40.884 109.536 40.884C105.088 40.884 101.792 37.524 101.792 33.012C101.792 28.5 105.088 25.14 109.344 25.14C114.048 25.14 116.512 28.468 116.512 32.564ZM130.825 27.828L129.161 29.076C128.521 27.828 127.145 26.964 125.481 26.964C123.913 26.964 122.312 27.636 122.312 29.3C122.312 30.708 123.433 31.348 125.897 31.86C129.417 32.596 131.081 33.908 131.081 36.244C131.081 39.668 128.201 40.884 125.449 40.884C123.177 40.884 120.905 39.988 119.529 37.972L121.257 36.692C122.025 38.004 123.657 39.028 125.417 39.028C127.273 39.028 128.937 38.356 128.937 36.404C128.937 34.836 127.369 34.196 124.521 33.524C122.761 33.108 120.233 32.34 120.233 29.492C120.233 26.452 122.857 25.14 125.577 25.14C127.657 25.14 129.865 26.132 130.825 27.828ZM136.627 31.86H146.835C146.707 29.044 144.979 26.964 141.875 26.964C138.963 26.964 136.819 29.3 136.627 31.86ZM149.043 32.564C149.043 32.852 149.043 33.204 149.011 33.588H136.595C136.659 36.596 138.995 39.028 142.067 39.028C144.307 39.028 146.035 37.78 146.867 36.436L148.499 37.716C146.739 39.956 144.531 40.884 142.067 40.884C137.619 40.884 134.323 37.524 134.323 33.012C134.323 28.5 137.619 25.14 141.875 25.14C146.579 25.14 149.043 28.468 149.043 32.564ZM153.596 25.524H155.676C155.74 26.324 155.804 27.444 155.804 28.084H155.868C156.7 26.356 158.876 25.14 160.988 25.14C164.796 25.14 166.684 27.604 166.684 31.316V40.5H164.508V32.212C164.508 29.076 163.58 26.964 160.444 26.964C158.14 26.964 155.9 28.82 155.9 32.82V40.5H153.724V28.82C153.724 28.02 153.692 26.548 153.596 25.524ZM179.07 25.524V27.348H174.846V36.084C174.846 38.324 175.774 38.836 177.086 38.836C177.694 38.836 178.398 38.644 178.974 38.356L179.07 40.244C178.302 40.532 177.502 40.692 176.51 40.692C174.91 40.692 172.67 39.988 172.67 36.692V27.348H169.566V25.524H172.67V21.3H174.846V25.524H179.07ZM184.65 37.972V48.18H182.474V25.524H184.65V28.116H184.746C185.994 26.164 188.234 25.14 190.378 25.14C195.05 25.14 198.122 28.596 198.122 33.012C198.122 37.428 195.05 40.884 190.378 40.884C188.234 40.884 185.994 39.828 184.746 37.972H184.65ZM195.818 33.012C195.818 29.684 193.77 26.964 190.154 26.964C186.794 26.964 184.394 29.588 184.394 33.012C184.394 36.436 186.794 39.028 190.154 39.028C193.77 39.028 195.818 36.34 195.818 33.012ZM205.026 16.308V40.5H202.85V16.308H205.026ZM220.289 31.316V30.836C220.289 28.244 218.881 26.964 216.289 26.964C214.529 26.964 212.897 27.668 211.841 28.724L210.625 27.284C211.841 26.068 213.953 25.14 216.513 25.14C219.745 25.14 222.337 26.932 222.337 30.58V37.14C222.337 38.292 222.433 39.668 222.593 40.5H220.641C220.513 39.764 220.417 38.868 220.417 38.068H220.353C218.977 40.052 217.313 40.884 214.913 40.884C212.641 40.884 209.729 39.668 209.729 36.34C209.729 31.732 214.817 31.316 220.289 31.316ZM220.289 33.012H219.649C216.097 33.012 211.969 33.396 211.969 36.244C211.969 38.388 213.793 39.092 215.489 39.092C218.561 39.092 220.289 36.788 220.289 34.132V33.012ZM237.895 25.524V27.06L228.935 38.612H238.215V40.5H226.055V38.964L234.983 27.348H226.503V25.524H237.895ZM251.539 31.316V30.836C251.539 28.244 250.131 26.964 247.539 26.964C245.779 26.964 244.147 27.668 243.091 28.724L241.875 27.284C243.091 26.068 245.203 25.14 247.763 25.14C250.995 25.14 253.587 26.932 253.587 30.58V37.14C253.587 38.292 253.683 39.668 253.843 40.5H251.891C251.763 39.764 251.667 38.868 251.667 38.068H251.603C250.227 40.052 248.563 40.884 246.163 40.884C243.891 40.884 240.979 39.668 240.979 36.34C240.979 31.732 246.067 31.316 251.539 31.316ZM251.539 33.012H250.899C247.347 33.012 243.219 33.396 243.219 36.244C243.219 38.388 245.043 39.092 246.739 39.092C249.811 39.092 251.539 36.788 251.539 34.132V33.012ZM273.433 17.844V19.764L260.217 38.452H273.625V40.5H257.305V38.58L270.553 19.892H257.657V17.844H273.433ZM292.01 33.012C292.01 37.524 288.682 40.884 284.01 40.884C279.37 40.884 276.042 37.524 276.042 33.012C276.042 28.5 279.37 25.14 284.01 25.14C288.682 25.14 292.01 28.5 292.01 33.012ZM289.706 33.012C289.706 29.652 287.498 26.964 284.01 26.964C280.554 26.964 278.346 29.652 278.346 33.012C278.346 36.372 280.554 39.028 284.01 39.028C287.498 39.028 289.706 36.372 289.706 33.012ZM296.565 25.524H298.645C298.709 26.324 298.773 27.444 298.773 28.084H298.837C299.669 26.356 301.845 25.14 303.957 25.14C307.765 25.14 309.653 27.604 309.653 31.316V40.5H307.477V32.212C307.477 29.076 306.549 26.964 303.413 26.964C301.109 26.964 298.869 28.82 298.869 32.82V40.5H296.693V28.82C296.693 28.02 296.661 26.548 296.565 25.524ZM316.502 31.86H326.71C326.582 29.044 324.854 26.964 321.75 26.964C318.838 26.964 316.694 29.3 316.502 31.86ZM328.918 32.564C328.918 32.852 328.918 33.204 328.886 33.588H316.47C316.534 36.596 318.87 39.028 321.942 39.028C324.182 39.028 325.91 37.78 326.742 36.436L328.374 37.716C326.614 39.956 324.406 40.884 321.942 40.884C317.494 40.884 314.198 37.524 314.198 33.012C314.198 28.5 317.494 25.14 321.75 25.14C326.454 25.14 328.918 28.468 328.918 32.564Z" fill="black"/>
</g>
<defs>
<clipPath id="clip0_8001_6145">
<rect width="358" height="64" fill="white" transform="translate(0 0.5)"/>
</clipPath>
</defs>
</svg>
