<svg width="308" height="64" viewBox="0 0 308 64" fill="none" xmlns="http://www.w3.org/2000/svg">
<g clip-path="url(#clip0_8023_1800)">
<path fill-rule="evenodd" clip-rule="evenodd" d="M18.3511 32.0001V46.0487L25.9328 45.9826L33.5146 45.9161V40.5906C33.5146 37.6614 33.5973 35.2646 33.6985 35.2646C33.7998 35.2644 34.6377 36.2792 35.5605 37.5198C36.4836 38.7605 37.3074 39.7756 37.3911 39.7756C37.4751 39.7756 37.9102 39.4653 38.3581 39.0863L39.1727 38.3971L37.2864 35.8907L35.4001 33.3843L38.3754 33.2282C40.789 33.1014 41.6051 32.9553 42.6961 32.4535C44.2784 31.7259 45.7158 30.3226 46.4925 28.7476C47.2647 27.1821 47.2715 24.1108 46.5065 22.4443C45.8238 20.9573 44.1922 19.3239 42.7001 18.6342C41.569 18.1113 41.1956 18.0935 29.943 18.0234L18.3511 17.9512V32.0001ZM20.7206 20.5415C20.6519 20.7207 20.6263 23.0634 20.6639 25.7472L20.7321 30.6273L22.5164 30.7003L24.3007 30.7732L24.1796 30.1399C23.6854 27.5543 26.3271 25.2071 28.8314 26.0069C29.3395 26.169 30.0683 26.5944 30.4515 26.9518L31.1481 27.6019L31.0781 23.9767L31.0082 20.3513L25.9271 20.2833C21.9394 20.2302 20.8188 20.2856 20.7206 20.5415ZM33.7777 20.4563C33.6667 20.636 33.5374 26.3387 33.6218 27.3325C33.6316 27.45 34.0321 27.2019 34.5118 26.7808C36.9433 24.6459 40.5035 26.276 40.5035 29.5243C40.5035 30.6517 40.5472 30.7424 41.0191 30.5973C42.8387 30.0373 44.2323 28.5583 44.6736 26.7184C45.3253 24.002 43.4618 21.1014 40.682 20.5052C39.113 20.1688 33.978 20.1325 33.7777 20.4563ZM26.7862 28.7047C25.7506 29.8489 26.6569 30.7527 28.8397 30.7527H30.3914L29.4558 29.4995C28.4261 28.1202 27.5509 27.8598 26.7862 28.7047ZM35.2843 29.4368L34.3552 30.6273L35.8994 30.7025C37.6428 30.7875 38.1513 30.5201 38.1513 29.519C38.1513 28.6674 37.7313 28.2463 36.8816 28.2463C36.3818 28.2463 35.9791 28.5466 35.2843 29.4368ZM20.7589 33.6555C20.5607 34.1723 20.5607 42.8724 20.7589 43.3892C20.8908 43.7329 21.5928 43.7857 26.0223 43.7857H31.1335V39.3495C31.1335 36.9078 31.038 35.0202 30.9215 35.1513C30.8047 35.2824 29.9961 36.3481 29.1247 37.5198C28.2532 38.6916 27.5053 39.6946 27.4627 39.749C27.3429 39.9016 25.6233 38.6753 25.6213 38.4359C25.6198 38.2682 27.4444 35.7839 29.1928 33.5723C29.3888 33.3242 28.5525 33.259 25.1756 33.259C21.5181 33.259 20.8895 33.3154 20.7589 33.6555Z" fill="white"/>
<path d="M75.4079 40V17.344H81.8079C86.4159 17.344 89.4559 19.328 89.4559 23.392C89.4559 27.456 86.3519 29.472 81.7439 29.472H77.7119V40H75.4079ZM77.7119 19.328V27.52H81.6159C85.1999 27.52 87.1519 26.08 87.1519 23.392C87.1519 20.608 85.1039 19.328 81.6159 19.328H77.7119ZM92.3112 28.32C92.3112 27.52 92.2792 26.048 92.1832 25.024H94.2632C94.3272 25.824 94.3912 26.944 94.3912 27.584H94.4552C95.2872 25.856 97.1432 24.64 99.2552 24.64C99.7992 24.64 100.247 24.672 100.695 24.8L100.407 26.848C100.151 26.752 99.4472 26.656 98.8712 26.656C96.5672 26.656 94.4872 28.32 94.4872 32.32V40H92.3112V28.32ZM104.496 31.36H114.704C114.576 28.544 112.848 26.464 109.744 26.464C106.832 26.464 104.688 28.8 104.496 31.36ZM116.912 32.064C116.912 32.352 116.912 32.704 116.88 33.088H104.464C104.528 36.096 106.864 38.528 109.936 38.528C112.176 38.528 113.904 37.28 114.736 35.936L116.368 37.216C114.608 39.456 112.4 40.384 109.936 40.384C105.488 40.384 102.192 37.024 102.192 32.512C102.192 28 105.488 24.64 109.744 24.64C114.448 24.64 116.912 27.968 116.912 32.064ZM131.224 27.328L129.56 28.576C128.92 27.328 127.544 26.464 125.88 26.464C124.312 26.464 122.712 27.136 122.712 28.8C122.712 30.208 123.832 30.848 126.296 31.36C129.816 32.096 131.48 33.408 131.48 35.744C131.48 39.168 128.6 40.384 125.848 40.384C123.576 40.384 121.304 39.488 119.928 37.472L121.656 36.192C122.424 37.504 124.056 38.528 125.816 38.528C127.672 38.528 129.336 37.856 129.336 35.904C129.336 34.336 127.768 33.696 124.92 33.024C123.16 32.608 120.632 31.84 120.632 28.992C120.632 25.952 123.256 24.64 125.976 24.64C128.056 24.64 130.264 25.632 131.224 27.328ZM137.027 31.36H147.235C147.107 28.544 145.379 26.464 142.275 26.464C139.363 26.464 137.219 28.8 137.027 31.36ZM149.443 32.064C149.443 32.352 149.443 32.704 149.411 33.088H136.995C137.059 36.096 139.395 38.528 142.467 38.528C144.707 38.528 146.435 37.28 147.267 35.936L148.899 37.216C147.139 39.456 144.931 40.384 142.467 40.384C138.019 40.384 134.723 37.024 134.723 32.512C134.723 28 138.019 24.64 142.275 24.64C146.979 24.64 149.443 27.968 149.443 32.064ZM153.996 25.024H156.076C156.14 25.824 156.204 26.944 156.204 27.584H156.268C157.1 25.856 159.276 24.64 161.388 24.64C165.196 24.64 167.084 27.104 167.084 30.816V40H164.908V31.712C164.908 28.576 163.98 26.464 160.844 26.464C158.54 26.464 156.3 28.32 156.3 32.32V40H154.124V28.32C154.124 27.52 154.092 26.048 153.996 25.024ZM179.469 25.024V26.848H175.245V35.584C175.245 37.824 176.173 38.336 177.485 38.336C178.093 38.336 178.797 38.144 179.373 37.856L179.469 39.744C178.701 40.032 177.901 40.192 176.909 40.192C175.309 40.192 173.069 39.488 173.069 36.192V26.848H169.965V25.024H173.069V20.8H175.245V25.024H179.469ZM185.05 37.472V47.68H182.874V25.024H185.05V27.616H185.146C186.394 25.664 188.634 24.64 190.778 24.64C195.45 24.64 198.522 28.096 198.522 32.512C198.522 36.928 195.45 40.384 190.778 40.384C188.634 40.384 186.394 39.328 185.146 37.472H185.05ZM196.218 32.512C196.218 29.184 194.17 26.464 190.554 26.464C187.194 26.464 184.794 29.088 184.794 32.512C184.794 35.936 187.194 38.528 190.554 38.528C194.17 38.528 196.218 35.84 196.218 32.512ZM205.426 15.808V40H203.25V15.808H205.426ZM220.689 30.816V30.336C220.689 27.744 219.281 26.464 216.689 26.464C214.929 26.464 213.297 27.168 212.241 28.224L211.025 26.784C212.241 25.568 214.353 24.64 216.913 24.64C220.145 24.64 222.737 26.432 222.737 30.08V36.64C222.737 37.792 222.833 39.168 222.993 40H221.041C220.913 39.264 220.817 38.368 220.817 37.568H220.753C219.377 39.552 217.713 40.384 215.313 40.384C213.041 40.384 210.129 39.168 210.129 35.84C210.129 31.232 215.217 30.816 220.689 30.816ZM220.689 32.512H220.049C216.497 32.512 212.369 32.896 212.369 35.744C212.369 37.888 214.193 38.592 215.889 38.592C218.961 38.592 220.689 36.288 220.689 33.632V32.512ZM238.294 25.024V26.56L229.334 38.112H238.614V40H226.454V38.464L235.382 26.848H226.902V25.024H238.294ZM251.939 30.816V30.336C251.939 27.744 250.531 26.464 247.939 26.464C246.179 26.464 244.547 27.168 243.491 28.224L242.275 26.784C243.491 25.568 245.603 24.64 248.163 24.64C251.395 24.64 253.987 26.432 253.987 30.08V36.64C253.987 37.792 254.083 39.168 254.243 40H252.291C252.163 39.264 252.067 38.368 252.067 37.568H252.003C250.627 39.552 248.963 40.384 246.563 40.384C244.291 40.384 241.379 39.168 241.379 35.84C241.379 31.232 246.467 30.816 251.939 30.816ZM251.939 32.512H251.299C247.747 32.512 243.619 32.896 243.619 35.744C243.619 37.888 245.443 38.592 247.139 38.592C250.211 38.592 251.939 36.288 251.939 33.632V32.512ZM273.832 17.344V19.264L260.616 37.952H274.024V40H257.704V38.08L270.952 19.392H258.056V17.344H273.832ZM292.41 32.512C292.41 37.024 289.082 40.384 284.41 40.384C279.77 40.384 276.442 37.024 276.442 32.512C276.442 28 279.77 24.64 284.41 24.64C289.082 24.64 292.41 28 292.41 32.512ZM290.106 32.512C290.106 29.152 287.898 26.464 284.41 26.464C280.954 26.464 278.746 29.152 278.746 32.512C278.746 35.872 280.954 38.528 284.41 38.528C287.898 38.528 290.106 35.872 290.106 32.512ZM296.964 25.024H299.044C299.108 25.824 299.172 26.944 299.172 27.584H299.236C300.068 25.856 302.244 24.64 304.356 24.64C308.164 24.64 310.052 27.104 310.052 30.816V40H307.876V31.712C307.876 28.576 306.948 26.464 303.812 26.464C301.508 26.464 299.268 28.32 299.268 32.32V40H297.092V28.32C297.092 27.52 297.06 26.048 296.964 25.024ZM316.902 31.36H327.11C326.982 28.544 325.254 26.464 322.15 26.464C319.238 26.464 317.094 28.8 316.902 31.36ZM329.318 32.064C329.318 32.352 329.318 32.704 329.286 33.088H316.87C316.934 36.096 319.27 38.528 322.342 38.528C324.582 38.528 326.31 37.28 327.142 35.936L328.774 37.216C327.014 39.456 324.806 40.384 322.342 40.384C317.894 40.384 314.598 37.024 314.598 32.512C314.598 28 317.894 24.64 322.15 24.64C326.854 24.64 329.318 27.968 329.318 32.064Z" fill="white"/>
</g>
<defs>
<clipPath id="clip0_8023_1800">
<rect width="307" height="64" fill="white" transform="translate(0.399902)"/>
</clipPath>
</defs>
</svg>
